<?xml version="1.0" encoding="utf-8"?>
<!-- Generator: Adobe Illustrator 19.2.1, SVG Export Plug-In . SVG Version: 6.00 Build 0)  -->
<svg version="1.1" id="Capa_1" xmlns="http://www.w3.org/2000/svg" xmlns:xlink="http://www.w3.org/1999/xlink" x="0px" y="0px"
	 viewBox="0 0 1080 1080" style="enable-background:new 0 0 1080 1080;" xml:space="preserve">
<style type="text/css">
	.st0{fill:#FFFFFF;}
	.st1{fill:#009FE3;stroke:#000000;stroke-width:5.8733;stroke-miterlimit:10;}
	.st2{fill:#4CBFD9;stroke:#000000;stroke-width:7.5212;stroke-miterlimit:10;}
	.st3{fill:#FFFFFF;stroke:#000000;stroke-width:5.2853;stroke-miterlimit:10;}
	.st4{fill:#00A19A;stroke:#000000;stroke-width:5.8733;stroke-miterlimit:10;}
	.st5{fill:#E6332A;stroke:#000000;stroke-width:5.8733;stroke-miterlimit:10;}
	.st6{fill:#009FE3;stroke:#000000;stroke-width:7.2075;stroke-miterlimit:10;}
	.st7{fill:#4CBFD9;stroke:#000000;stroke-width:9.2297;stroke-miterlimit:10;}
	.st8{fill:#FFFFFF;stroke:#000000;stroke-width:6.4859;stroke-miterlimit:10;}
	.st9{fill:#00A19A;stroke:#000000;stroke-width:7.2075;stroke-miterlimit:10;}
	.st10{fill:#E6332A;stroke:#000000;stroke-width:7.2075;stroke-miterlimit:10;}
	.st11{fill:#009FE3;stroke:#000000;stroke-width:8.7551;stroke-miterlimit:10;}
	.st12{fill:#4CBFD9;stroke:#000000;stroke-width:11.2115;stroke-miterlimit:10;}
	.st13{fill:#FFFFFF;stroke:#000000;stroke-width:7.8786;stroke-miterlimit:10;}
	.st14{fill:none;}
	.st15{font-family:'Futura-MediumItalic';}
	.st16{font-size:74.3238px;}
	.st17{font-family:'FuturaStd-Heavy';}
	.st18{font-size:83.5537px;}
	.st19{fill:#00A19A;stroke:#000000;stroke-width:8.7551;stroke-miterlimit:10;}
	.st20{fill:#E6332A;stroke:#000000;stroke-width:8.7551;stroke-miterlimit:10;}
	.st21{fill:#F9B233;stroke:#000000;stroke-width:6.4849;stroke-miterlimit:10;}
	.st22{fill:#FFFFFF;stroke:#000000;stroke-width:10.9165;stroke-miterlimit:10;}
</style>
<g>
	<rect class="st0" width="1080" height="1080"/>
	<g>
		<polygon class="st11" points="259.6,384.8 868,338.8 833,627.7 485,627.7 384.3,756.9 412.8,623.4 294.6,623.4 		"/>
		<polygon class="st12" points="212.9,355.6 821.3,309.6 786.3,598.5 438.3,598.5 339.1,730.9 366.1,594.2 241.7,592.6 		"/>
		<g>
			<path class="st13" d="M344.2,422.4c7.1-6.4,15.4-9.5,25.2-9.5c0.1,0,0.3,0,0.4,0c11.4,0.1,20.2,3.9,27.1,11.6l7,7.9l9.1-30.5
				l-3.6-2.4c-11.9-8.1-24.6-12.2-38-12.3c-16.9-0.1-32,5.3-45,16.4c-12.9,11-20.9,25.1-23.7,41.9c-2.8,16.9,0.5,30.9,9.7,41.4
				c9.2,10.6,22.7,16.1,40.1,16.2c0.2,0,0.4,0,0.7,0c9,0,19.1-1.7,29.9-5.1l3-0.9l10.7-36l-13.5,8.8c-8,5.2-16.3,7.7-25.6,7.6
				c-10.6-0.1-18.4-2.7-22.9-7.7c-4.6-5-6-12-4.5-21.5C332.3,437.4,336.8,429,344.2,422.4z"/>
			<path class="st13" d="M521.5,404.2c-9.8-10.5-24-15.9-42.2-16.1c-17.9-0.1-33.9,5.1-47.5,15.8c-13.6,10.7-21.9,24.5-24.7,41.2
				c-2.8,17,0.8,31.2,10.7,42.3c9.8,10.9,23.8,16.5,41.7,16.7c0.3,0,0.5,0,0.8,0c10.7,0,20.9-2.1,30.4-6.2
				c9.8-4.2,18.3-10.4,25.3-18.3c8.8-10,14.3-21.4,16.3-33.9C535.1,428.8,531.5,414.8,521.5,404.2z M476.9,413.9c0.2,0,0.3,0,0.5,0
				c10.2,0.1,17.5,2.8,22.3,8.1c4.7,5.3,6.3,12.3,4.8,21.5c-1.7,10.2-6.4,18.4-14.6,25c-8.1,6.7-17.1,10-27.6,9.8
				c-9.7-0.1-16.9-3-22.1-8.9c-5.1-5.9-6.8-13.2-5.3-22.3c1.6-9.6,6.3-17.4,14.4-23.8C457.5,417,466.5,413.9,476.9,413.9z"/>
			<path class="st13" d="M653,405.4c-9.8-10.5-24-15.9-42.2-16.1c-17.9-0.2-33.9,5.1-47.5,15.8c-13.6,10.7-21.9,24.5-24.7,41.2
				c-2.8,17,0.8,31.2,10.7,42.3c9.8,10.9,23.8,16.5,41.7,16.7c0.3,0,0.5,0,0.8,0c10.7,0,20.9-2.1,30.4-6.2
				c9.8-4.2,18.3-10.4,25.3-18.3c8.8-10,14.3-21.4,16.3-33.9C666.6,430,663,416,653,405.4z M608.4,415.1c0.2,0,0.3,0,0.5,0
				c10.2,0.1,17.5,2.8,22.3,8.1c4.7,5.3,6.3,12.3,4.8,21.5c-1.7,10.2-6.4,18.4-14.6,25c-8.1,6.7-17.1,10-27.6,9.8
				c-9.7-0.1-16.9-3-22.1-8.9c-5.1-5.9-6.8-13.2-5.3-22.3c1.6-9.6,6.3-17.4,14.4-23.8C589,418.2,598,415.1,608.4,415.1z"/>
			<polygon class="st13" points="690.9,478.6 716.6,392.3 688.3,392.1 654.9,503.9 713.9,504.5 721.6,478.9 			"/>
		</g>
		<rect x="412.1" y="496.7" class="st14" width="213.7" height="77.4"/>
		<text transform="matrix(1 0 0 1 412.0969 558.0107)" class="st0 st15 st16">radio</text>
		<rect x="536" y="646.6" class="st14" width="240.2" height="87"/>
		<text transform="matrix(1 0 0 1 535.9954 717.4834)" class="st17 st18">like it</text>
		<polygon class="st19" points="836.5,630.5 793.9,598.5 829.1,311.5 869.1,338.2 		"/>
		<polygon class="st20" points="828.7,633.2 487.2,628.7 447.1,597.6 791.3,600.3 		"/>
		<polygon class="st20" points="357.4,629.5 295.3,626.7 250.4,596.4 370.1,595.5 		"/>
		<polygon class="st20" points="438.6,599.1 482.9,627.8 375,770.4 335.5,743.2 		"/>
	</g>
</g>
</svg>
